<?xml version="1.0" encoding="UTF-8" standalone="no"?> <svg xmlns="http://www.w3.org/2000/svg" width="320" height="330" viewBox="0 0 32 33" id="s1" ><g transform="matrix(0.05229294,0,0,0.05229294,-0.04307875,8.425674)" id="l1" style="display:inline"> <g transform="matrix(1.0198386,0,0,1.0106909,-14.598879,-163.14129)" id="g1"> <path d="M 42.261242,597.61941 C 29.893085,593.34915 21.679907,585.04249 17.176614,572.24927 15.354142,567.0719 15.122585,536.44702 15.122585,300.59065 c 0,-264.444754 0.01414,-265.861208 2.727561,-273.106906 3.436069,-9.175417 11.310425,-17.37166 21.090464,-21.9525988 l 7.5485,-3.5356924 266.94915,0 c 212.7722,0 268.08902,0.345667 272.56568,1.7032248 10.98109,3.3300321 22.3249,14.7386024 25.63699,25.7833564 1.01985,3.400898 1.44389,84.004176 1.4347,272.714506 l -0.0134,267.88671 -3.14741,6.66769 c -3.85082,8.15786 -10.70299,15.10446 -19.15527,19.41925 -6.364,3.24875 -6.40161,3.25121 -56.08755,3.65871 l -49.71928,0.40778 0,-19.30328 0,-19.30328 31.03284,-0.4484 c 30.61349,-0.44233 31.12302,-0.49624 37.70657,-3.98899 8.32131,-4.41466 14.39336,-10.66752 17.91423,-18.44766 2.69714,-5.95991 2.7159,-7.57875 2.74502,-236.83764 C 574.3735,130.3793 573.9837,69.906066 572.83458,66.537725 568.32287,53.3128 556.8372,43.831385 542.34714,41.370339 536.18639,40.323976 468.47202,40.0086 308.76663,40.282449 l -224.904654,0.385647 -7.0467,3.181565 C 72.625091,45.741526 67.399533,49.663812 63.924354,53.525554 52.972285,65.69588 53.830211,44.671267 53.830211,300.89582 c 0,226.77026 0.01963,228.46686 2.727563,235.69791 3.286624,8.77634 11.250758,17.35733 19.754452,21.28451 5.547622,2.56201 8.974142,2.91699 31.908874,3.30558 l 25.69385,0.43535 0,19.23436 0,19.23435 -42.378174,-0.0436 c -37.14495,-0.0381 -43.22992,-0.3376 -49.275534,-2.42493 l 0,0 z" id="p1" style="fill:#e87600;fill-opacity:1;stroke-width:0.1;stroke-miterlimit:4;stroke-dasharray:none;display:inline;enable-background:new" /> <text x="310.13889" y="604.66913" id="t1" xml:space="preserve"  style="font-size:81.12299347px;font-style:normal;font-variant:normal;font-weight:bold;font-stretch:normal;text-align:center;line-height:125%;letter-spacing:0px;word-spacing:0px;text-anchor:middle;fill:#0a0079;fill-opacity:1;stroke:none;font-family:Droid Sans"> <tspan  x="310.13889" y="604.66913" id="ts1"> <tspan x="310.13889" y="604.66913" id="ts2" style="fill:#0a005b;font-family:Droid Sans">gliff.me</tspan></tspan></text></g></g> <g transform="translate(3.5,3.0) scale(1 1)"> <!-- margin: 0 length: 25 --> <path d="M0 0h7v7h-7zM10 0h3v1h-1v1h-1v1h1v-1h1v2h-1v1h-2v1h-1v2h-1v-6h2zM14 0h1v1h-1zM18 0h7v7h-7zM1 1v5h5v-5zM13 1h1v1h-1zM15 1h2v2h-1v-1h-1zM19 1v5h5v-5zM2 2h3v3h-3zM20 2h3v3h-3zM14 3h1v1h-1zM13 5h1v1h-1zM15 5h2v3h-1v1h-4v-1h-1v-1h1v-1h1v2h2v-1h1v-1h-1zM10 6h1v1h-1zM14 6h1v1h-1zM0 8h1v1h-1zM2 8h5v1h-2v1h-1v-1h-2zM10 8h1v2h-1zM18 8h5v1h-3v1h2v1h-2v1h-1v1h-2v-1h1v-1h1v-2h-1zM1 9h1v2h-1zM8 9h1v1h-1zM16 9h1v1h1v1h-1v1h-2v-1h-2v1h2v1h-1v1h-1v-1h-1v-1h-1v2h-2v2h-2v-1h-1v1h-1v-1h-1v2h-2v-1h1v-1h-1v-1h3v-1h1v1h2v-1h1v-3h1v1h2v-1h4zM23 9h1v1h1v3h-1v1h1v2h-1v-1h-1v-2h-1v-1h2v-1h-1zM3 10h1v1h-1zM5 10h2v1h-1v1h-2v-1h1zM2 11h1v2h-2v-1h1zM7 11h1v2h-2v-1h1zM20 12h1v1h-1zM0 13h1v4h-1zM16 13h1v1h-1zM19 13h1v1h1v-1h1v2h-1v2h1v1h-1v1h1v1h-1v1h1v-1h1v1h2v4h-6v-1h-4v1h-1v-2h7v-1h-1v-1h-1v1h-4v-1h-1v-1h1v-1h1v-1h-1v-1h1v-2h3zM11 14h2v1h-1v1h3v1h-1v1h1v1h-2v-1h-1v-1h-3v-1h2zM15 14h1v1h-1zM6 16h1v1h-1zM22 16h1v1h-1zM8 17h1v1h-1zM17 17v3h3v-3zM0 18h7v7h-7zM9 18h1v1h3v2h-1v-1h-3v1h1v1h-1v1h-1v-4h1zM18 18h1v1h-1zM22 18h3v2h-2v-1h-1zM1 19v5h5v-5zM2 20h3v3h-3zM11 21h1v1h-1zM10 22h1v1h-1zM23 22v1h-1v1h2v-2zM9 23h1v1h-1zM11 23h1v1h-1zM8 24h1v1h-1zM10 24h1v1h-1zM12 24h1v1h-1z"/> </g> </svg>